{"title":"New Moon (2009) Nordic optional subtitles (DVDrip)","uid":5462819,"size":739284429,"categoryP":"video","categoryS":"movies","magnet":"?xt=urn:btih:59d24fb91728ba43cb365962ef065a47787a872d&amp;dn=New+Moon+%282009%29+Nordic+optional+subtitles+%28DVDrip%29&amp;tr=udp%3A%2F%2Ftracker.openbittorrent.com%3A80&amp;tr=udp%3A%2F%2Fopen.demonii.com%3A1337&amp;tr=udp%3A%2F%2Ftracker.coppersurfer.tk%3A6969&amp;tr=udp%3A%2F%2Fexodus.desync.com%3A6969","seeders":1,"leechers":0,"uploader":"Kuthumi","files":-1,"time":1269526039,"description":"aka:\nTwilight New Moon 2009 Nordic\nTwilight New Moon Nordic\nThe Twilight Saga: New Moon 2009 Nordic subtitles\nThe Twilight Saga New Moon 2009 Nordic subs\n &lt;a href=&quot;\nhttp://www.imdb.com/title/tt1259571/&quot; rel=&quot;nofollow&quot; target=&quot;_NEW&quot;&gt;\nhttp://www.imdb.com/title/tt1259571/&lt;/a&gt;\n\nOptional subtitles in separate idx/sub files (Work in Windows Media Player etc., see enclosed Note): \nDanish, Finnish, Norwegian, Swedish.\n\nAfter Bella recovers from the vampire attack that almost claimed her life, she looks to celebrate her birthday with Edward and his family.\nThe Nordic rental DVD is finally out, so I made a rip for you.\n\nMy ripping procedure now produces decent quality for such a long film compressed \ninto just 700 MiB. I enclose a sample for ye weak in faith.\n\nWidescreen DVDrip XviD 2-pass 704x288, great stereo sound AC3.\nRuns well in both my standalone DivX players.\n\nMediaInfo analysis:\nFormat/Info                      : Audio Video Interleave\nFile size                        : 695 MiB\nDuration                         : 2h 5mn\nOveral bit rate                  : 776 Kbps\n\nVideo\nFormat                           : MPEG-4 Visual\nFormat profile                   : Streaming Video@L1\nFormat settings, BVOP            : Yes\nFormat settings, QPel            : No\nFormat settings, GMC             : No warppoints\nFormat settings, Matrix          : Default\nMuxing mode                      : Packet Bitstream\nCodec ID                         : XVID\nCodec ID/Hint                    : XviD\nDuration                         : 2h 5mn\nBit rate                         : 638 Kbps\nWidth                            : 704 pixels\nHeight                           : 288 pixels\nDisplay aspect ratio             : 2.444\nFrame rate                       : 25.000 fps\nResolution                       : 8 bits\nColorimetry                      : 4:2:0\nScan type                        : Progressive\nBits/(Pixel*Frame)               : 0.126\nStream size                      : 571 MiB\nWriting library                  : XviD 1.2.0.dev47 (UTC 2006-11-01)\n\nAudio\nFormat                           : MPEG Audio\nFormat version                   : Version 1\nFormat profile                   : Layer 3\nCodec ID                         : 55\nCodec ID/Hint                    : MP3\nDuration                         : 2h 5mn\nBit rate mode                    : Constant\nBit rate                         : 128 Kbps\nMinimum bit rate                 : 128 Kbps\nChannel(s)                       : 2 channels\nSampling rate                    : 48.0 KHz\nResolution                       : 16 bits\nStream size                      : 115 MiB\nWriting library                  : LAME3.97 \nEncoding settings                : CBR\n\nSource: Nordic PAL rental 7.6 Giga (note that PAL/NTSC will give no problems for avi files).","torrent":{"xt":"urn:btih:59d24fb91728ba43cb365962ef065a47787a872d","amp;dn":"New+Moon+%282009%29+Nordic+optional+subtitles+%28DVDrip%29","amp;tr":["udp%3A%2F%2Ftracker.openbittorrent.com%3A80","udp%3A%2F%2Fopen.demonii.com%3A1337","udp%3A%2F%2Ftracker.coppersurfer.tk%3A6969","udp%3A%2F%2Fexodus.desync.com%3A6969"],"infoHash":"59d24fb91728ba43cb365962ef065a47787a872d","infoHashBuffer":{"type":"Buffer","data":[89,210,79,185,23,40,186,67,203,54,89,98,239,6,90,71,120,122,135,45]},"announce":[],"urlList":[]}}